<?xml version="1.0" encoding="utf-8"?>
<!-- Generator: Adobe Illustrator 16.0.0, SVG Export Plug-In . SVG Version: 6.00 Build 0)  -->
<!DOCTYPE svg PUBLIC "-//W3C//DTD SVG 1.1//EN" "http://www.w3.org/Graphics/SVG/1.1/DTD/svg11.dtd">
<svg version="1.1" id="圖層_1" xmlns="http://www.w3.org/2000/svg" xmlns:xlink="http://www.w3.org/1999/xlink" x="0px" y="0px"
	 width="200px" height="100px" viewBox="0 0 200 100" enable-background="new 0 0 200 100" xml:space="preserve">
<g>
	<path fill="#015496" d="M46.201,78.4h-9.992c-0.103,0-0.334-0.026-0.691-0.077c-0.359-0.052-0.667-0.104-0.922-0.154
		c-0.923-0.153-1.82-0.307-2.69-0.461c-0.872-0.153-1.819-0.436-2.844-0.846c-3.434-1.281-6.354-2.934-8.762-4.957
		c-2.409-2.023-4.381-4.239-5.918-6.648c-1.537-2.407-2.652-4.919-3.344-7.532S10,52.549,10,50.04c0-0.512,0.05-1.423,0.153-2.729
		c0.103-1.307,0.281-2.548,0.538-3.728c0.357-1.434,0.909-2.997,1.652-4.688c0.742-1.69,1.678-3.344,2.806-4.957
		c1.126-1.614,2.433-3.151,3.92-4.612c1.485-1.46,3.15-2.728,4.995-3.804c2.613-1.537,5.123-2.536,7.532-2.997
		c0.103,0,0.346-0.051,0.73-0.154c0.384-0.102,0.818-0.217,1.307-0.346c0.486-0.127,0.973-0.23,1.46-0.308
		c0.486-0.077,0.884-0.115,1.191-0.115h9.915v11.528h-9.377c-0.104,0-0.411,0.065-0.923,0.193c-0.513,0.127-0.922,0.218-1.229,0.268
		c-0.922,0.104-1.935,0.424-3.035,0.961c-1.104,0.538-2.191,1.218-3.268,2.037c-1.075,0.82-2.063,1.743-2.959,2.767
		c-0.896,1.025-1.575,2.075-2.036,3.151c-0.104,0.257-0.244,0.552-0.423,0.884c-0.18,0.334-0.32,0.653-0.423,0.961
		c-0.41,1.18-0.666,2.165-0.769,2.959c-0.104,0.795-0.153,1.679-0.153,2.651c0,1.384,0.179,2.832,0.538,4.344
		c0.357,1.512,0.947,2.958,1.768,4.342c0.818,1.383,1.883,2.678,3.189,3.882s2.907,2.216,4.804,3.035
		c0.204,0.104,0.538,0.23,0.999,0.384c0.461,0.154,0.935,0.296,1.422,0.423c0.486,0.129,0.961,0.244,1.422,0.347
		s0.846,0.153,1.153,0.153h9.3V78.4z"/>
	<path fill="#015496" d="M91.393,40.892c0,2.307-0.359,4.472-1.077,6.495c-0.718,2.024-1.717,3.843-2.997,5.457
		c-1.281,1.614-2.767,2.985-4.458,4.111c-1.69,1.128-3.51,1.948-5.457,2.46c-0.461,0.103-1.128,0.257-1.998,0.461
		c-0.872,0.206-1.614,0.308-2.229,0.308h-9.222V78.4H52.348V21.601h20.675c0.358,0,0.794,0.038,1.307,0.115
		c0.512,0.077,1.038,0.181,1.575,0.308c0.539,0.129,1.038,0.257,1.499,0.385c0.462,0.128,0.794,0.218,0.999,0.269
		c1.486,0.564,2.869,1.229,4.15,1.998c1.28,0.769,2.587,1.896,3.92,3.382c0.973,1.025,1.806,2.217,2.498,3.574
		c0.691,1.357,1.242,2.626,1.652,3.805c0.256,0.872,0.447,1.768,0.576,2.689C91.328,39.047,91.393,39.97,91.393,40.892z
		 M79.94,40.854c0-0.713-0.115-1.452-0.346-2.217c-0.23-0.766-0.59-1.492-1.076-2.18c-0.487-0.688-1.089-1.301-1.806-1.836
		c-0.718-0.536-1.563-0.931-2.536-1.186c-0.308-0.102-0.653-0.179-1.038-0.229c-0.384-0.051-0.603-0.077-0.653-0.077h-8.53v15.526
		h8.53c0.103,0,0.358-0.038,0.769-0.115c0.409-0.076,0.718-0.14,0.923-0.191c1.946-0.509,3.394-1.529,4.342-3.06
		C79.466,43.76,79.94,42.282,79.94,40.854z"/>
	<path fill="#0CB14B" d="M190,78.4h-40.197V21.678h11.606v45.192H190V78.4z"/>
	<path fill="#0CB14B" d="M139.966,50.807c-0.104-0.103-0.219-0.23-0.346-0.384c-0.129-0.153-0.244-0.281-0.347-0.384
		c1.589-1.742,2.729-3.652,3.421-5.727c0.691-2.075,1.037-4.009,1.037-5.803c0-0.103-0.026-0.538-0.076-1.307
		c-0.053-0.77-0.129-1.384-0.23-1.845c-0.104-0.973-0.373-2.011-0.809-3.113c-0.438-1.101-1.002-2.177-1.694-3.228
		c-0.692-1.05-1.526-2.023-2.501-2.921c-0.976-0.896-2.055-1.652-3.233-2.268c-0.411-0.204-0.821-0.409-1.232-0.614
		c-0.411-0.204-0.744-0.358-1.002-0.461c-0.051,0-0.257-0.064-0.615-0.192c-0.359-0.128-0.771-0.27-1.231-0.423
		c-0.462-0.153-0.911-0.281-1.347-0.385c-0.438-0.102-0.783-0.153-1.041-0.153H97.541V78.4h30.795c0.102,0,0.5-0.065,1.192-0.193
		c0.693-0.128,1.245-0.243,1.656-0.345c2.154-0.513,4.027-1.372,5.618-2.575c1.592-1.205,2.901-2.562,3.928-4.073
		c1.025-1.511,1.783-3.113,2.271-4.804c0.488-1.691,0.731-3.306,0.731-4.842c0-1.742-0.295-3.613-0.884-5.61
		C142.258,53.958,141.298,52.243,139.966,50.807z"/>
	<path fill="#FFFF00" d="M117.77,28.238c3.633-0.302,7.078,0.45,10.595,1.924c-6.396,5.037-13.396,7.625-21.407,7.439
		C108.641,31.89,112.654,28.662,117.77,28.238z"/>
	<path fill="#FFFF00" d="M134.756,67.671c0.279,1.563-1.027,2.928-2.552,2.536c-1.972-0.507-3.9-0.223-5.851-0.016
		c-3.932,0.414-7.809,0.331-11.372-1.662c-7.083-3.963-10.411-10.001-9.878-18.107c0.143-2.157,0.581-4.234,1.627-6.146
		c0.185-0.337,0.175-0.565-0.09-0.86c-0.496-0.553-0.944-1.148-1.411-1.729c-0.28-0.348-0.469-0.7-0.069-1.097
		c0.421-0.418,0.765-0.137,1.092,0.125c0.558,0.446,1.101,0.91,1.647,1.372c0.261,0.219,0.472,0.33,0.86,0.143
		c7.521-3.615,18.637-1.973,24.051,7.69c1.529,2.705,2.195,5.598,2.052,8.663c0.106,1.89-0.156,3.725-0.384,5.554
		C134.326,65.352,134.547,66.5,134.756,67.671z"/>
</g>
</svg>
